<svg width="207" height="242" viewBox="0 0 207 242" fill="none" xmlns="http://www.w3.org/2000/svg">
<path fill-rule="evenodd" clip-rule="evenodd" d="M62.4788 97.6825C108.617 82.1784 116.769 40.9234 111.189 2.89101C111.2 1.52035 112.382 0.550404 113.554 0.951122C157.444 22.8314 206.62 70.2092 206.074 140.7C205.655 194.744 163.382 242.196 102.485 241.725C80.7481 242.544 59.3568 236.102 41.6877 223.414C24.0187 210.726 11.0782 192.515 4.9087 171.655C-1.26079 150.796 -0.307925 128.476 7.61691 108.218C15.5417 87.96 29.9872 70.9182 48.6733 59.7822C49.8543 59.008 51.4147 59.8034 51.404 61.1741C51.9353 68.4235 53.7524 86.6489 61.6956 97.6764L62.4788 97.6825Z" fill="white"/>
</svg>
